<?xml version="1.0" encoding="UTF-8"?>
<svg version="1.1" viewBox="0 0 2048 1772" width="171" height="148" xmlns="http://www.w3.org/2000/svg">
<path transform="translate(0)" d="m0 0h2048v1772h-2048z" fill="#FEFEFD"/>
<path transform="translate(419,371)" d="m0 0h27l26 4 18 6 16 8 13 8 14 11v2l3 1v2h2l9 11 10 15 9 17 7 18 4 18 1 26 8 3h9l20 7 19 11 8 8 11 15 10 17 6 18 2 16v14l-3 21-5 13-7 13-11 14-8 8-14 11-19 9-16 4-11 1-181 1h-152l-26-1-14-2-16-5-16-7-10-6v-2l-4-2-8-8-7-6-3-4v-2l-4-2-3-5v-3h-2l-9-20-3-12-1-7v-21l3-23 5-16 8-15 8-11 9-10 11-10 15-9 13-6 3-11 2-16 10-15 7-8 11-8 10-6 12-5 16-1 27 9 13 8 4-1 10-19 9-12 9-10 11-10 16-11 19-10 18-6z" fill="#FEFEFD"/>
<path transform="translate(422,345)" d="m0 0h21l26 4 19 5 20 9 14 8 16 12 13 12 9 10 12 17 10 17 9 19 6 15 4 18 4 6 24 11 15 10 12 11 10 11 12 18 6 12 8 21 2 9 1 9v24l-4 22-5 15-7 14-12 16-17 17-13 10-15 8-27 9-9 2-23 2h-351l-19-5-19-7-19-10-15-11v-2l-4-2v-2h-2v-2l-4-2-8-9-10-15-9-19-5-16-4-20-1-11v-9l2-17 4-15 7-19 8-15 9-12 11-12 10-9 14-9 11-9 2-3 1-11 8-16 5-7 3-3 7-8 9-8 15-9 13-6 19-5 7-1h13l7 2 10 8 3 3 3-1 8-12 16-17 11-11 13-10 15-9 16-8 20-7 20-4zm-3 26-25 5-17 6-19 10-16 12-10 9-10 11-10 15-8 15-4-1-14-8-25-8-16 1-14 6-14 9-9 8-10 14-3 5-3 21-3 7-16 7-12 8-13 12-8 9-10 16-6 13-4 16-2 18v21l3 16 5 12 5 11h2l1 5 4 5h2l2 4 6 7 8 7 4 4h2v2l16 9 15 6 16 4 9 1 26 1h152l181-1 16-2 13-4 17-8 11-9 10-9 10-12 8-14 5-12 3-14 1-10v-14l-2-16-6-18-8-14-10-14-11-12-21-12-18-6h-9l-8-3-1-26-4-18-9-22-10-18-10-14-6-7h-2l-1-3h-2v-2l-14-11-20-12-20-8-18-4-15-2z" fill="#109FFB"/>
<path transform="translate(657,947)" d="m0 0 3 1 1 4v47l-3 29-5 19-8 17-10 14-12 14-12 11-13 8-19 9-18 6-16 3-9 1h-29l-20-4-20-6-13-7-11-9-9-12-7-21-2-12v-11l4-23 5-16 6-11 10-10 14-8 21-7 14-3 24-3 59-4 32-4 23-5z" fill="#FEFEFD"/>
<path transform="translate(331,947)" d="m0 0 3 1 1 2v30l-2 30-3 21-5 20-10 18-10 14-20 20-13 8-14 7-25 8-24 4h-26l-13-2-17-4-16-6-9-5-9-7-8-10-7-15-4-14-1-6v-21l3-15 8-20 7-10 7-7 9-6 15-6 19-5 30-4 63-4 33-4 17-4 17-7z" fill="#FEFEFD"/>
<path transform="translate(1283,945)" d="m0 0 4 1 1 3v42l-3 32-3 15-6 17-7 13-13 17-4 5-16 14-17 10-24 9-17 4-15 2-24 1-13-2-19-5-17-6-6-3-12-9-6-10-7-14-4-14-1-7v-24l4-17 6-15 7-10 7-7 11-6 12-5 19-5 21-3 49-3 34-3 26-4 15-4 11-5z" fill="#FEFEFD"/>
<path transform="translate(1174,776)" d="m0 0h27l23 3 17 4 13 5 16 9 15 14 8 10 8 14 4 10 3 12 2 16 1 36 1 126 1 76 3 8 5 3h18l4-1h9l4 4v14l-5 5-9 3-19-1-12-4-10-6-6-7-4-8-6-27-2-3v-3l-4 1-2 5-14 15-11 11-16 11-16 8-21 8-20 5-15 2h-30l-18-3-21-7-16-8-6-4-14-11-10-11-10-16-5-12-2-21v-25l4-19 5-15 7-13 9-11 9-8 14-9 15-6 20-6 23-4 17-2 56-4 33-4 17-5 15-8 5-4 4-8 2-7v-29l-4-24-4-9-7-12-9-10-10-6-16-7-22-5-9-1h-29l-24 4-21 7-17 9-10 8-7 7-10 16-5 11-5 16-1 6-1 18-2 4h-10l-9-3-2-2v-8l7-30 6-17 6-12 10-13 9-10 9-8 15-10 21-9 17-5zm109 169-11 6-13 5-21 4-24 3-40 3-33 2-21 3-19 5-15 6-10 7-7 7-6 11-5 12-4 17v24l3 15 5 13 8 14 5 5 10 8 19 7 18 5 8 2 9 1 24-1 20-3 15-4 21-8 14-8 10-8 12-12 9-11 9-14 5-11 5-15 3-21 2-23v-42l-2-4z" fill="#109FFB"/>
<path transform="translate(212,776)" d="m0 0h30l25 3 21 4 16 6 12 7 12 11 7 8 10 15 6 14 5 17 2 16 1 53v184l2 4 16 6h7l10-5h5l6 12v7l-5 6-7 3h-15l-16-3-14-7-5-5-4-6-3-12-4-21-3-6-3 1-2 4-13 16-10 10-14 10-21 11-22 8-17 4-12 2h-32l-23-4-24-8-15-8-13-10-10-10-8-13-5-12-5-19-2-12v-10l3-21 4-15 5-13 7-11 12-14 12-9 14-7 21-7 27-5 32-3 50-4 31-4 12-4 14-7 3-3h2l5-10 1-7v-32l-3-15-4-12-7-13-9-11-8-6-15-7-21-5-14-2h-26l-21 3-19 5-17 7-12 8-13 13-9 14-7 16-4 13v19l-2 5-2 2h-12l-10-2-1-4 12-43 6-15 6-10 10-13 15-15 16-11 15-7 18-6zm119 171-11 4-13 5-20 4-27 3-63 4-30 4-19 5-15 6-11 8-7 7-6 10-7 18-3 15v21l4 17 7 16 8 11 7 6 10 6 12 5 18 5 9 2 9 1h26l24-4 27-9 16-8 11-8 19-19 10-15 9-16 6-25 3-28 1-18v-30l-3-3z" fill="#109FFB"/>
<path transform="translate(543,776)" d="m0 0h27l25 3 20 4 16 6 12 8 16 16 10 15 8 17 4 14 1 8 1 28 1 218 2 6 8 3h13l10-3 6 1 5 6 1 4v7l-2 6-4 3h-24l-16-4-10-6-8-9-2-7-3-29-2-6-7 9-10 10-4 5-8 7-13 10-16 9-16 7-22 7-14 3-8 1h-34l-25-5-20-7-17-9-14-11-8-8-6-10-6-14-4-16-2-14v-22l5-25 5-12 8-14 9-10 10-8 14-8 15-6 18-5 24-4 83-7 26-4 16-5 10-5 9-8 4-8v-36l-2-13-5-16-6-11-7-9-8-7-15-7-16-5-24-4h-25l-17 2-18 4-19 8-12 7-9 7-11 14-8 16-8 26-1 15-3 5-2 1h-9l-10-4-2-2 1-7 8-27 6-18 8-15 4-6h2l2-4 8-10 10-9 15-10 17-8 15-5 15-3zm114 171-24 8-25 5-26 3-59 4-29 4-19 5-13 5-12 7-10 10-8 16-5 21-2 13v11l3 15 6 18 7 9 4 5 14 10 11 5 21 6 16 3h29l21-3 17-5 18-8 13-7 9-7 13-12 9-11 10-15 7-15 5-19 3-29v-47l-2-5z" fill="#109FFB"/>
<path transform="translate(1705,647)" d="m0 0h12l2 152 1 28 1 15 4-1 2-6 8-12 11-12 13-11 14-9 15-7 12-4 16-3 9-1h18l23 3 20 5 15 6 15 9 13 11 11 12 10 16 10 22 4 13 2 12 1 22 1 126v113l-1 1h-19l-4-1v-234l-1-24-3-19-8-21-9-14-9-10-10-7-16-8-16-5-15-3-8-1h-20l-20 3-18 6-15 8-12 9-12 12-13 17-10 16-4 9-3 24-1 15-1 56v127l-1 42-3 2-8 1h-12l-3-1v-374l1-86 1-37 1-1z" fill="#109FFB"/>
<path transform="translate(754,648)" d="m0 0h21l1 171 2 162 7-6 14-14 14-11 15-13 10-9 14-12 11-9 13-11 14-11 13-11 10-8 13-11 11-9 11-10 11-9 14-12 17-13 16-11 14-6 12-3 8-1h9v3l-10 9-17 12-19 14-11 9-13 11-22 18-14 12-11 9-14 12-17 14-14 11-8 9 1 5 9 11 11 14 18 22 11 13 14 19 9 11 11 14 9 10 20 26 11 14 4 5 9 11 9 12 11 14 12 14 6 6-1 3h-19l-8-2-8-7-8-11-13-18-14-18-13-17-11-14-8-10-11-14-13-16-11-14-10-12-8-10-11-13-7-8-9-13-6-8-5-4-10 9-9 7-15 13-11 9-16 13-15 12-7 5-1 5v40l1 68v27h-24l-1-67v-337l1-94z" fill="#109FFB"/>
<path transform="translate(1483,776)" d="m0 0h28l23 3 21 5 15 6 11 6 12 9 9 9 11 15 8 16 7 19 3 17v12l-4 5h-14l-4-3-3-28-6-17-9-16-9-10-10-7-15-7-20-6-16-3-9-1h-25l-26 4-18 6-14 7-12 9-7 8-8 16-3 17v14l3 16 7 14 9 8 16 7 49 15 70 19 27 9 17 8 13 9 10 10 7 10 8 17 4 14 1 7v19l-3 15-5 13-9 14-12 13-13 10-17 10-15 6-20 6-15 3-9 1h-31l-26-4-15-4-19-7-17-9-12-9-11-11-11-17-8-17-3-9-4-21-1-8v-19l7-6 8-1 6 5v16l5 24 5 14 8 17 2 4h2l2 4 5 5 7 6 19 9 20 6 23 5 6 1h32l23-3 15-4 19-8 12-8 10-9 9-11 5-11 3-15v-19l-4-14-4-8-7-9-1-3-4-2-10-7-13-6-24-8-43-11-44-12-22-7-21-8-12-7-10-8v-2h-2l-9-13-5-11-5-19-1-8v-11l5-24 8-16 7-10 13-13 15-10 15-7 19-6 16-3z" fill="#109FFB"/>
<path transform="translate(1801,1220)" d="m0 0h26v93l108-1v-91l2-1h24l1 2-1 5v203l-1 1-23 1-1-12-1-86-1-1h-97l-10 1-1 97-1 1h-23l-1-1z" fill="#109FFB"/>
<path transform="translate(1286,1220)" d="m0 0h135l1 2-3 17-3 2-100 1-1 70h92l1 1v19l-1 1h-25l-67 1-1 78 37-1h69l1 1v17l-11 1-61 1h-62z" fill="#109FFB"/>
<path transform="translate(1598,1217)" d="m0 0h21l16 3 15 6 10 7 8 10 8 14 9 24v5l-3 1-13 1-7-1-3-5-1-8 2-2-4-10-7-9-7-7-10-6-15-4h-12l-12 3-13 7-11 9-9 12-5 12-3 14-2 24v21l2 19 4 17 8 16 6 9 8 8 12 6 9 2h16l13-3 14-7 8-8 9-14 3-10 2-6 8-2h12l2 3-4 12-8 19-9 11-8 8-15 8-17 5-6 1h-26l-15-4-12-5-11-8-9-10-10-16-6-14-3-12-2-16v-41l2-18 4-15 7-16 7-10 9-10 10-8 16-8 11-3z" fill="#109FFB"/>
<path transform="translate(1042,1220)" d="m0 0h77l69 1 1 3-2 14-1 1-32 1h-37l-1 192h-23l-2-190-1-1-15-1-52-1-1-1v-16l1-1z" fill="#109FFB"/>
</svg>
